<svg width="498" height="446" viewBox="0 0 498 446" fill="none" xmlns="http://www.w3.org/2000/svg">
<rect x="200" y="69" width="100" height="100" rx="10" fill="#FF54A6"/>
<rect x="100" y="173" width="100" height="100" rx="10" fill="#FF54A6" fill-opacity="0.3"/>
<rect y="69" width="100" height="100" rx="10" fill="#FF54A6"/>
<rect x="202" y="176" width="95" height="95" rx="47.5" fill="#00F0FF"/>
<rect y="278" width="100" height="100" rx="10" fill="#D9D9D9"/>
<rect x="200" y="278" width="100" height="100" rx="10" fill="#FF54A6"/>
<rect x="300" y="173" width="100" height="100" rx="10" fill="#D9D9D9"/>
<path d="M497.35 151.642C497.35 313.737 363.259 445.142 197.85 445.142C32.4403 445.142 55.8496 348.237 55.8496 186.142C55.8496 24.0461 9.94032 0.141632 175.35 0.141632C340.759 0.141632 497.35 -10.4539 497.35 151.642Z" fill="url(#paint0_linear_15_108)"/>
<circle cx="52" cy="226" r="50" fill="url(#paint1_radial_15_108)"/>
<defs>
<linearGradient id="paint0_linear_15_108" x1="511.85" y1="194.142" x2="318.85" y2="194.142" gradientUnits="userSpaceOnUse">
<stop stop-color="#FF54A6"/>
<stop offset="1" stop-color="#FF54A6" stop-opacity="0"/>
</linearGradient>
<radialGradient id="paint1_radial_15_108" cx="0" cy="0" r="1" gradientUnits="userSpaceOnUse" gradientTransform="translate(52 226) rotate(90) scale(50)">
<stop stop-color="#FF54A6"/>
<stop offset="1" stop-color="#FF54A6" stop-opacity="0"/>
</radialGradient>
</defs>
</svg>
